<svg width="28" height="155" viewBox="0 0 28 155" fill="none" xmlns="http://www.w3.org/2000/svg">
<rect x="13" y="75" width="2" height="80" rx="1" fill="url(#paint0_linear_18508_18)"/>
<path opacity="0.9" d="M15.792 59.458L15.792 57.3779C16.3096 57.3535 16.7051 57.2021 16.9785 56.9238C17.2471 56.6455 17.3813 56.2451 17.3813 55.7227C17.3813 55.293 17.2715 54.9561 17.0518 54.7119C16.832 54.4678 16.5464 54.3457 16.1948 54.3457C15.8481 54.3457 15.5601 54.4897 15.3306 54.7778C15.0962 55.0659 14.8691 55.542 14.6494 56.2061C14.3223 57.2217 13.9146 57.9785 13.4263 58.4766C12.938 58.9746 12.2764 59.2236 11.4414 59.2236C10.5088 59.2236 9.75439 58.9258 9.17822 58.3301C8.59717 57.7344 8.30664 56.9263 8.30664 55.9058C8.30664 54.9048 8.57275 54.1138 9.10498 53.5327C9.63721 52.9468 10.416 52.6318 11.4414 52.5879L11.4414 54.6753C11.0312 54.6899 10.7114 54.8145 10.4819 55.0488C10.2524 55.2832 10.1377 55.5835 10.1377 55.9497C10.1377 56.3208 10.2354 56.6113 10.4307 56.8213C10.626 57.0312 10.9019 57.1362 11.2583 57.1362C11.4536 57.1362 11.6221 57.1045 11.7637 57.041C11.9004 56.9727 12.0273 56.853 12.1445 56.6821C12.2617 56.5063 12.3618 56.3232 12.4448 56.1328C12.5278 55.9375 12.6328 55.6567 12.7598 55.2905C13.1309 54.187 13.5679 53.4058 14.0708 52.9468C14.5688 52.4878 15.2158 52.2583 16.0117 52.2583C16.998 52.2583 17.7769 52.5879 18.3481 53.2471C18.9146 53.9014 19.1978 54.7363 19.1978 55.752C19.1978 56.9189 18.8877 57.8223 18.2676 58.4619C17.6475 59.0967 16.8223 59.4287 15.792 59.458ZM13.7339 50.4609C12.6987 50.4609 11.7686 50.2388 10.9434 49.7944C10.1182 49.3501 9.47363 48.7275 9.00977 47.9268C8.54102 47.126 8.30664 46.2202 8.30664 45.2095C8.30664 43.9204 8.62891 42.8682 9.27344 42.0527C9.91309 41.2373 10.7847 40.6855 11.8882 40.3975L11.8882 42.6606C10.7798 43.061 10.2256 43.9106 10.2256 45.2095C10.2256 46.1323 10.5552 46.8818 11.2144 47.458C11.8735 48.0293 12.7134 48.3149 13.7339 48.3149C14.7642 48.3149 15.6113 48.0269 16.2754 47.4507C16.9395 46.8745 17.2715 46.1226 17.2715 45.1948C17.2715 44.4917 17.1152 43.9204 16.8027 43.481C16.4902 43.0366 16.063 42.7192 15.521 42.5288L15.521 40.3535C16.6929 40.6465 17.5986 41.1982 18.2383 42.0088C18.8779 42.8193 19.1978 43.8813 19.1978 45.1948C19.1978 46.2104 18.9634 47.1211 18.4946 47.9268C18.021 48.7275 17.3691 49.3501 16.5391 49.7944C15.709 50.2388 14.7739 50.4609 13.7339 50.4609ZM19 38.146L8.49707 38.146L8.49707 34.9014C8.49707 33.7832 8.80469 32.8896 9.41992 32.2207C10.0352 31.5469 10.8433 31.21 11.8442 31.21C12.4937 31.21 13.0649 31.3711 13.5581 31.6934C14.0513 32.0107 14.4297 32.46 14.6934 33.041L19 30.7632L19 33.1216L15.0669 35.1577L15.0669 36.0879L19 36.0879L19 38.146ZM13.2432 36.0879L13.2432 34.9014C13.2432 34.4131 13.1235 34.0298 12.8843 33.7515C12.645 33.4683 12.2983 33.3267 11.8442 33.3267C11.3804 33.3267 11.0288 33.4683 10.7895 33.7515C10.5454 34.0298 10.4233 34.4131 10.4233 34.9014L10.4233 36.0879L13.2432 36.0879ZM13.7339 29.2002C12.9575 29.2002 12.2349 29.0659 11.5659 28.7974C10.897 28.5288 10.3232 28.1577 9.84473 27.6841C9.36621 27.2056 8.99023 26.6294 8.7168 25.9556C8.44336 25.2769 8.30664 24.5444 8.30664 23.7583C8.30664 22.7134 8.54101 21.7783 9.00976 20.9531C9.47363 20.123 10.1182 19.4785 10.9434 19.0195C11.7686 18.5557 12.6987 18.3237 13.7339 18.3237C14.7739 18.3237 15.709 18.5557 16.5391 19.0195C17.3691 19.4785 18.021 20.123 18.4946 20.9531C18.9634 21.7783 19.1978 22.7134 19.1978 23.7583C19.1978 24.8081 18.9634 25.748 18.4946 26.5781C18.021 27.4082 17.3691 28.0527 16.5391 28.5117C15.709 28.9707 14.7739 29.2002 13.7339 29.2002ZM13.7339 27.0542C14.769 27.0542 15.6187 26.7515 16.2827 26.146C16.9419 25.5405 17.2715 24.7446 17.2715 23.7583C17.2715 22.7769 16.9395 21.9834 16.2754 21.3779C15.6113 20.7725 14.7642 20.4697 13.7339 20.4697C12.7134 20.4697 11.8735 20.7725 11.2144 21.3779C10.5552 21.9834 10.2256 22.7769 10.2256 23.7583C10.2256 24.7446 10.5552 25.5405 11.2144 26.146C11.8735 26.7515 12.7134 27.0542 13.7339 27.0542ZM19 15.977L8.49707 15.9771L8.49707 13.9043L17.0811 13.9043L17.0811 9.53906L19 9.53906L19 15.977ZM19 7.39014L8.49707 7.39014L8.49707 5.31738L17.0811 5.31738L17.0811 0.952148L19 0.952148L19 7.39014Z" fill="white"/>
<defs>
<linearGradient id="paint0_linear_18508_18" x1="14" y1="75" x2="14" y2="155" gradientUnits="userSpaceOnUse">
<stop stop-color="#09F4F4"/>
<stop offset="1" stop-color="#00C9E0"/>
</linearGradient>
</defs>
</svg>
